<svg id="pen-solid" width="24" height="24" viewBox="0 0 24 24" fill="none" xmlns="http://www.w3.org/2000/svg">
<path d="M16.474 5.408l2.118 2.118m-.756-3.982L12.109 9.27a2 2 0 00-.53.95l-.904 3.612 3.612-.904a2 2 0 00.95-.53l5.727-5.727a1.5 1.5 0 000-2.121l-.824-.824a1.5 1.5 0 00-2.122 0z" stroke="currentColor" stroke-width="2" stroke-linecap="round" stroke-linejoin="round"/>
<path d="M19 15v3a2 2 0 01-2 2H6a2 2 0 01-2-2V7a2 2 0 012-2h3" stroke="currentColor" stroke-width="2" stroke-linecap="round" stroke-linejoin="round"/>
</svg>