<svg width="1080" height="965" viewBox="0 0 1080 965" fill="none" xmlns="http://www.w3.org/2000/svg">
<path d="M1051.85 30.0119C1032.6 35.8758 1011 65.6107 993.692 83.4332C925.523 154.077 812.908 285.991 801.277 410.564C795.184 477.698 818.677 518.006 812.908 561.362C808.338 596.915 789.369 613.675 764.631 603.01C728.769 588.05 697.523 439.421 655.615 341.444C622.569 262.628 596.077 190.045 533.584 190.045C471.092 190.045 443.584 249.145 400.523 370.902C366.184 473.82 340.615 574.013 303.231 574.013C278.031 574.013 277.569 534.721 283.661 475.62C293.031 383.645 286.754 306.03 262.754 255.286C236.215 203.204 197.723 172.315 147.877 174.623C84.1845 177.625 23.6768 257.364 23.2152 326.022C22.7537 366.331 44.446 404.146 64.1537 404.146C79.846 404.146 82.1537 387.154 76.2922 372.194C68.3537 350.955 41.8152 341.213 40.4306 322.79C39.5076 307.415 51.3691 289.5 69.7383 289.5C109.615 289.5 137.538 333.548 137.538 396.158C137.538 467.586 115.708 527.379 115.708 620.047C115.708 729.891 176.815 830.085 261.369 830.777C292.108 831.008 313.708 820.112 331.246 795.409C378 728.044 401.031 637.223 423.138 579.046C444.277 526.04 471.277 487.995 504.461 487.995C543.415 487.995 558.6 526.271 587.446 604.395C627.738 720.564 686.354 853.863 793.061 856.172C880.384 858.25 968.631 739.956 969.092 585.51C969.554 511.542 958.846 462.692 963.046 359.543C967.938 245.221 1001.12 148.398 1056.46 55.9607C1069.25 35.8758 1065.05 26.3643 1051.85 30.0119Z" fill="#92A9E1"/>
<path d="M170.861 13.2977C116.492 17.4532 18.9229 111.321 15.1844 193.97C13.7998 220.98 21.7383 217.748 24.9691 212.669C29.6306 205.051 25.4767 180.395 74.8152 135.885C109.154 108.413 151.338 95.2535 174.369 85.0956C204.138 72.1212 210.692 49.4968 206.492 34.2599C201.831 17.6841 186.969 12.1434 170.861 13.2977Z" fill="#92A9E1"/>
<path d="M258.923 94.3298C237.785 100.563 228 121.294 229.385 128.913C232.2 142.118 245.908 144.196 259.615 138.655C277.061 131.729 283.615 121.525 281.723 109.059C279.415 97.5619 269.631 92.4829 258.923 94.3298Z" fill="#92A9E1"/>
<path d="M533.538 745.22C511.938 745.22 505.892 767.337 507.784 782.574C514.292 827.315 584.769 894.449 691.938 902.298C714.507 903.914 724.984 898.835 725.446 892.602C726.369 884.753 718.477 883.368 710.077 881.752C656.169 870.439 617.215 789.546 569.261 756.302C557.631 747.991 547.8 745.22 533.538 745.22Z" fill="#92A9E1"/>
<path d="M798.462 894.356C771.462 900.128 757.985 917.443 757.754 927.831C757.062 945.608 772.846 951.61 784.477 950.456C808.016 948.147 820.339 930.371 821.262 915.365C822.185 901.282 812.446 892.279 798.462 894.356Z" fill="#92A9E1"/>
</svg>


