<svg width="167" height="44" viewBox="0 0 167 44" fill="none" xmlns="http://www.w3.org/2000/svg">
<path d="M74.3998 37.5016L72.5998 41.3016C72.0998 42.4016 71.0998 43.0016 70.0998 42.9016C68.8998 42.9016 67.2998 42.1016 67.2998 40.5016C67.2998 39.9016 67.4998 39.4016 67.8998 38.5016L76.0998 21.5016C76.8998 20.0016 77.5998 18.6016 80.2998 18.6016C82.9998 18.6016 83.5998 19.8016 84.4998 21.5016L92.0998 38.1016C92.4998 38.9016 92.6998 39.5016 92.6998 40.4016C92.6998 42.4016 91.0998 42.9016 89.8998 42.9016C88.8998 42.9016 87.9998 42.5016 87.4998 41.5016L85.8998 37.6016H74.3998V37.5016ZM76.4998 33.1016H83.7998L80.1998 24.7016L76.4998 33.1016Z" fill="#92A9E1"/>
<path d="M107 35.7L113.5 21C114.4 19 115.1 18.6 116.5 18.6C117.6 18.6 118.9 19.4 118.9 20.6C118.9 21.4 118.7 22.3 118.5 22.7L110.9 39.9C110.1 41.5 109.1 42.9 106.7 42.9C104 42.9 103.5 42 102.6 40.1L95.4002 23.6C94.9002 22.5 94.7002 21.6 94.7002 20.7C94.7002 19.4 95.9002 18.5 97.4002 18.5C98.6002 18.5 99.6002 19.1 100.4 20.9L106.7 35.7H107Z" fill="#92A9E1"/>
<path d="M129.5 18.6992H139.9C141.6 18.6992 142.7 19.0992 142.7 20.9992C142.7 22.8992 141.5 23.4992 139.9 23.4992H130.5C129.9 23.4992 129.5 23.5992 129.5 24.4992V28.0992H138.4C139.9 28.0992 140.9 28.8992 140.9 30.3992C140.9 31.8992 139.9 32.7992 138.4 32.7992H129.6V36.6992C129.6 37.5992 129.9 37.8992 130.6 37.8992H140.1C141.7 37.8992 143.1 38.2992 143.1 40.2992C143.1 42.0992 141.9 42.6992 140.1 42.6992H128.5C125.9 42.6992 123.9 42.0992 123.9 38.3992V23.4992C123.9 19.7992 124.9 18.6992 128.4 18.6992H129.5Z" fill="#92A9E1"/>
<path d="M153.4 18.6992H163.9C165.6 18.6992 166.5 19.0992 166.5 20.9992C166.5 22.8992 165.5 23.4992 163.6 23.4992H155.1C154.5 23.4992 154.1 23.4992 154.1 24.4992V28.0992H162.6C164.1 28.0992 165 28.8992 165 30.3992C165 31.8992 164 32.7992 162.5 32.7992H154.2V36.6992C154.2 37.5992 154.5 37.8992 155.2 37.8992H164.2C165.9 37.8992 166.7 38.3992 166.7 40.2992C166.7 42.2992 165.5 42.6992 163.9 42.6992H153.4C150.6 42.6992 148.6 42.6992 148.6 38.3992V22.9992C148.6 19.3992 150.1 18.6992 153.4 18.6992Z" fill="#92A9E1"/>
<path d="M71.8272 1.63064C70.6964 0.179088 68.1024 -0.282771 66.5725 0.377028C65.3088 0.904866 64.178 2.55436 63.6459 3.61004C62.0496 7.17295 59.9876 12.7153 58.3248 16.4101C56.7284 19.5772 54.6 23.0741 50.077 23.404C47.9485 23.47 45.7536 22.7442 44.2902 21.2926C42.0953 18.9833 41.4301 15.0246 43.6916 11.7256C45.421 10.0101 47.0173 9.6142 48.6802 9.68018C52.1389 9.74616 53.2697 12.1874 54.5334 12.1214C55.3316 12.1214 55.2651 10.8678 55.1321 9.48224C54.6665 5.45747 51.1412 1.56466 46.6182 0.508987C43.2925 -0.282771 40.3659 -0.150811 37.1732 0.904866C34.2466 1.82858 30.9874 4.20386 29.524 6.31521C28.5263 7.70079 27.063 10.142 26.3314 11.5936C24.3359 15.1565 22.6731 18.6534 21.0102 18.6534C19.7464 18.6534 18.8818 17.2679 17.0859 13.2431C16.0216 10.7359 13.7602 5.45747 12.6294 3.61004C12.0973 2.81828 11.0996 1.7626 10.1684 1.03683C9.03763 0.245068 7.37477 -0.0848312 5.57888 0.113108C4.58117 0.245068 3.3174 0.574967 2.45271 1.30075C1.38848 2.29044 0.789852 2.81828 0.324251 4.33582C-0.473921 7.10697 0.324252 9.48225 1.38848 11.5936C2.65225 14.5627 4.38163 17.8617 5.51237 20.4349C7.57432 24.6576 9.70277 29.0783 11.4321 32.8391C13.095 36.2701 14.0927 38.7773 16.0216 40.5587C17.2854 41.8783 19.2808 42.934 21.5423 43C23.4047 43 25.0011 42.4062 26.3314 41.4165C27.2626 40.6907 28.2603 39.4371 28.9254 38.3814C30.2557 36.1381 31.6525 33.103 33.1823 30.5298C34.5791 28.5504 35.1778 27.5607 36.3085 27.5607C37.3727 27.5607 37.9714 28.2205 38.9691 29.5401C40.0333 31.2556 41.9622 35.2804 42.8934 36.9299C44.8889 40.2288 46.6848 42.4062 50.21 42.934C51.8729 43.1979 53.6688 42.5381 54.999 41.7464C56.3293 40.8227 57.5266 39.701 58.5908 37.8536C60.0541 35.2804 62.2491 30.5298 63.8455 27.1648C65.9739 22.6782 70.0313 14.3648 71.2285 11.5276C71.9602 9.74616 72.8914 7.76677 72.9579 5.98531C73.1575 4.13788 72.6254 2.48838 71.8272 1.63064Z" fill="#92A9E1"/>
</svg>
