<svg width="1216" height="496" viewBox="0 0 1216 496" fill="none" xmlns="http://www.w3.org/2000/svg">
<path d="M66.6854 28.6902C63.1833 22.3686 64.5938 19.9859 69.6038 19.9859H158.858C164.549 19.9859 167.419 22.709 163.09 31.0729C156.669 44.1537 158.858 72.8439 162.603 100.853C168.878 147.098 176.66 193.683 188.674 209.779C198.062 223.249 208.13 210.508 212.605 196.698C218.394 178.511 225.933 155.413 226.273 142.235C226.273 132.072 210.562 58.6933 199.764 35.2549C195.435 26.1616 196.506 19.9859 203.169 19.9859H292.035C297.871 19.9859 299.914 24.0706 295.974 32.4345C286.246 53.3929 290.916 91.7114 307.356 153.663C315.868 186.535 322.045 213.864 340.772 214.933C355.412 215.614 365.821 184.444 370.734 164.166C375.16 145.347 372.145 139.172 354.148 131.489C331.044 122.055 314.263 109.947 314.944 79.5059C316.354 41.1875 344.76 17.5545 390.822 17.5545C413.975 17.5545 432.701 19.6455 444.715 25.8212C451.33 28.8847 449.579 35.2063 445.786 46.9741L427.4 97.4494C424.433 106.154 420.493 104.111 413.975 99.2972C406.193 93.4619 393.838 91.7114 374.771 92.0518C355.364 92.3921 352.348 107.904 368.107 113.351C395.492 122.784 409.403 128.231 407.263 149.578C405.852 163.048 377.057 232.536 372.145 246.347C359.06 281.602 334.157 291.716 303.416 291.716C271.995 291.716 263.483 269.299 253.317 220.234C249.718 203.117 245.778 194.364 242.422 207.202C227.051 261.518 218.062 314.84 172 314.5C134.596 314.16 121.989 267.013 108.564 207.202C92.1241 136.594 88.1842 71.0933 66.6854 28.6902Z" fill="white"/>
<path d="M480.66 19.9859C475.748 19.9859 475.407 25.1404 476.477 34.1851C477.888 47.6549 468.16 72.1145 443.305 135.865C431.291 166.646 433.917 183.763 463.442 190.668C481.098 195.093 486.011 196.504 485.281 203.02C484.211 210.314 471.857 211.335 457.556 209.584C441.457 207.834 434.988 204.43 430.026 199.956C425.941 196.163 423.606 197.914 420.833 206.278L397.681 270.417C393.741 281.602 396.951 283.693 408.236 281.602C427.643 277.857 453.957 277.857 481.341 275.766C510.915 273.335 530.711 257.239 530.711 227.82C530.711 197.038 515.341 185.854 490.826 176.08C468.014 166.987 466.214 158.623 473.51 136.254C482.898 108.585 492.285 78.1443 504.98 78.1443C519.281 78.1443 529.738 124.389 543.163 172.384C555.517 216.489 559.992 233.266 560.673 252.425C561.403 269.542 566.316 277.225 579.156 278.295C606.589 280.872 631.055 285.297 657.71 291.133C670.794 294.196 675.22 289.382 667.438 277.614C650.317 253.155 632.466 182.693 613.059 113.934C604.206 80.0408 598.077 49.2596 601.434 34.1851C603.914 24.411 602.844 19.9859 596.375 19.9859H480.66Z" fill="white"/>
<path d="M634.266 19.9859C627.796 19.9859 624.975 23.3898 629.45 33.1639C647.69 66.6682 651.29 110.968 666.319 168.397C687.818 247.757 718.17 302 813.407 302C869.926 302 898.332 286.318 914.043 255.878C921.485 240.511 920.755 223.735 919.004 204.576C917.934 194.072 910.492 195.142 905.19 200.929C889.82 217.024 855.578 226.458 827.512 225.777C802.998 225.437 795.215 205.645 813.066 190.425C827.366 177.976 847.503 174.232 862.144 160.082C874.499 147.973 870.072 127.501 844.828 127.501C811.753 127.501 796.723 116.998 801.198 102.847C805.673 89.3772 819.584 88.6964 844.828 89.3772C875.082 90.1066 895.9 93.5106 909.325 101.874C922.409 109.558 923.82 100.805 924.16 93.1215V35.2062C924.16 26.8423 922.409 23.3898 913.021 21.6392C894.295 17.8949 871.142 16.4847 843.758 16.4847C778.726 16.4847 748.813 36.2761 746.721 84.2713C745.311 120.207 759.805 135.914 796.869 141.749C816.276 144.813 823.135 146.563 813.407 153.857C802.122 162.562 782.326 169.904 771.917 182.013C761.848 194.461 753.677 192.711 744.824 177.49C732.47 156.872 726.341 107.126 726.001 72.2117C726.001 53.0525 729.357 39.9231 735.826 29.2251C740.641 21.2015 735.826 19.7913 730.038 19.7913L634.266 19.9859Z" fill="white"/>
<path d="M958.694 21.3961C952.906 21.3961 949.696 22.8063 952.177 36.2761C957.138 60.3953 949.696 100.853 949.696 130.322C949.696 154.781 951.447 164.555 966.477 160.13C988.316 153.371 1007.72 142.235 1038.03 137.81C1049.65 136.06 1051.4 144.083 1040.17 148.508C1005.92 163.048 944.394 178.56 944.394 233.947C944.394 278.781 972.8 297.551 1029.32 297.551C1074.31 297.551 1124.65 283.741 1146.88 258.941C1160.31 243.235 1160.65 226.798 1159.24 200.977C1158.51 191.884 1151.7 192.613 1145.86 197.427C1123.1 217.365 1086.37 225.729 1041.72 224.318C1014.92 222.908 1007.82 204.916 1030.15 188.82C1046.59 176.712 1064.05 173.649 1082.29 161.54C1100.14 149.773 1100.14 121.714 1070.96 120.693C1054.86 120.353 1048.05 124.097 1031.27 124.778C1015.55 125.118 1014.48 115.344 1016.58 102.215C1018.33 92.1004 1024.84 88.6964 1040.9 88.6964H1076.55C1105.34 88.6964 1126.5 91.76 1141.39 99.7835C1151.8 105.084 1157.92 99.4431 1157.92 87.6753V30.7812C1157.92 23.098 1156.85 20.3749 1148.68 20.3749L958.694 21.3961Z" fill="white"/>
<path d="M1204.81 243.915C1176.75 310.632 1093.43 351.82 973.238 360.864C841.277 370.979 744.97 349.096 660.58 329.305C555.08 303.484 451.331 292.3 321.121 317.1C258.911 330.034 238.774 348.027 174.083 346.276C112.602 344.525 53.5041 310.973 14.5435 261.907C29.1841 330.375 73.1547 389.798 160.123 389.798C210.125 389.798 236.439 376.863 268.59 370.59C375.16 354.154 467.09 383.962 560.284 423.351C626.435 452.77 692.585 477.23 802.998 477.23C993.375 477.23 1165.71 363.928 1204.81 243.915Z" fill="#92A9E1"/>
<path d="M62.3078 253.884C52.9203 259.719 54.6713 270.563 61.9673 276.35C68.4364 281.164 72.5222 286.464 75.7324 285.054C79.8182 283.304 73.5436 272.46 75.392 263.755C77.143 256.072 69.7011 249.167 62.3078 253.884Z" fill="#92A9E1"/>
<path d="M311.199 401.711C287.365 394.515 247.918 394.174 230.602 409.881C214.892 424.42 221.993 440.856 241.4 439.446C268.055 437.696 278.464 421.26 308.767 411.486C321.851 407.06 323.261 405.65 311.199 401.711Z" fill="#92A9E1"/>
<path d="M358.039 413.479C356.288 422.67 362.903 426.998 369.372 426.268C377.154 425.587 378.565 419.606 374.09 409.151C370.491 402.392 359.839 403.802 358.039 413.479Z" fill="#92A9E1"/>
</svg>
